<svg xmlns="http://www.w3.org/2000/svg" width="112.637" height="27.246" viewBox="0 0 112.637 27.246">
  <g id="Group_2" data-name="Group 2" transform="translate(416.263 -53.601)">
    <path id="Path_10" data-name="Path 10" d="M-398.695,80.356h-.027a11.562,11.562,0,0,1-1.466-.093c-.494-.063-.972-.129-1.44-.2a7.328,7.328,0,0,1-1.679-.458c-.527-.216-1.081-.421-1.652-.617a2.147,2.147,0,0,0-1.251-.053,7.566,7.566,0,0,0-1.171.458,9.467,9.467,0,0,1-1.383.537c-.474.143-.965.269-1.466.375a10.609,10.609,0,0,1-1.37.176,10.378,10.378,0,0,1-1.4-.013,13.706,13.706,0,0,1-1.6-.255,2.117,2.117,0,0,1-1.3-.9,1.681,1.681,0,0,1-.362-1.075,1.657,1.657,0,0,1,.348-.886,2.83,2.83,0,0,1,.806-.7,5.868,5.868,0,0,1,1.035-.484,5.113,5.113,0,0,1,1.2-.269c.385-.036.783-.08,1.2-.136a14.668,14.668,0,0,1,2.017-.136,12.054,12.054,0,0,1,2.017.163,5.165,5.165,0,0,0,.793.093.909.909,0,0,0,.687-.308,7.034,7.034,0,0,0,1.171-1.546c.312-.564.614-1.134.9-1.708.017-.053.1-.232.242-.537s.3-.627.458-.969.305-.65.431-.929a1.541,1.541,0,0,0,.163-.418,6.073,6.073,0,0,0-1.33-.123,5.207,5.207,0,0,1-1.357-.149,7.648,7.648,0,0,1-1.4-.511,5.135,5.135,0,0,1-1.211-.806,4.389,4.389,0,0,1-1.357-1.99,7.76,7.76,0,0,1-.362-2.392,5.114,5.114,0,0,1,.4-1.95,9.409,9.409,0,0,1,.942-1.761,9.073,9.073,0,0,1,1.678-1.841,10.707,10.707,0,0,1,2.11-1.383,9.335,9.335,0,0,1,2.77-.859c.179-.017.411-.043.7-.08a4.651,4.651,0,0,1,.859-.027,2.315,2.315,0,0,1,.78.176.859.859,0,0,1,.484.551q.134.458-.149.577a1.685,1.685,0,0,1-.713.106,5.012,5.012,0,0,1-.872-.106,3.48,3.48,0,0,0-.63-.093,4.634,4.634,0,0,0-1.881.388,5.856,5.856,0,0,0-1.6,1.035,6.37,6.37,0,0,0-1.211,1.493,6.282,6.282,0,0,0-.713,1.761,6.1,6.1,0,0,0-.176,2.083A5.685,5.685,0,0,0-406.5,65.5a4.745,4.745,0,0,0,1.211,1.572,4.742,4.742,0,0,0,1.881.969,1.58,1.58,0,0,0,.886.013,1.527,1.527,0,0,0,.643-.391,2.644,2.644,0,0,0,.471-.66c.136-.259.265-.514.391-.766.163-.322.322-.647.484-.969s.332-.644.511-.969c.358-.647.727-1.28,1.1-1.907a20.1,20.1,0,0,1,1.237-1.828,26.948,26.948,0,0,1,2.392-2.849,16.086,16.086,0,0,1,2.849-2.365,13.1,13.1,0,0,1,2.567-1.3,6.182,6.182,0,0,1,2.836-.418,1.918,1.918,0,0,1,1.357.673,2.506,2.506,0,0,1,.524,1.3,4.67,4.67,0,0,1-.106,1.546,6.413,6.413,0,0,1-.484,1.4,10.736,10.736,0,0,1-.591,1,11.735,11.735,0,0,1-.7.942q-.512.7-1.075,1.343c-.375.428-.77.852-1.184,1.264a32.311,32.311,0,0,1-2.62,2.246,17.135,17.135,0,0,1-2.916,1.814q-.726.378-1.493.726t-1.466.726a1.065,1.065,0,0,0-.537.617c-.09.269-.189.527-.3.78a17.182,17.182,0,0,1-1.022,1.907q-.562.916-1.184,1.775-.378.537-.766,1.075a8.163,8.163,0,0,1-.846,1c-.126.126-.289.269-.484.431a.767.767,0,0,0-.322.511.308.308,0,0,0,.136.322,1.45,1.45,0,0,0,.375.176,3.21,3.21,0,0,0,.444.106,2.077,2.077,0,0,1,.362.093c.431.143.866.3,1.3.471s.882.322,1.33.458a8.765,8.765,0,0,0,1.357.3,4.718,4.718,0,0,0,1.383-.013,2.838,2.838,0,0,0,1.383-.617,4.919,4.919,0,0,0,1-1.141,8.383,8.383,0,0,0,.713-1.41c.2-.5.368-.975.511-1.426a5.593,5.593,0,0,0,.282-1.761,11.46,11.46,0,0,0-.176-1.761,1.159,1.159,0,0,1,.053-.59c.073-.216.242-.285.511-.216a1.124,1.124,0,0,1,.78.617,3.586,3.586,0,0,1,.362,1.158,7.654,7.654,0,0,1,.08,1.29,9.874,9.874,0,0,1-.066,1.022,7.714,7.714,0,0,1-.617,2.043,8.76,8.76,0,0,1-1.506,2.232,7.625,7.625,0,0,1-2.488,1.665A8.169,8.169,0,0,1-398.695,80.356Zm-12.771-.886a4.051,4.051,0,0,0,1.357-.511,3.209,3.209,0,0,0,1.008-.916c.126-.179.063-.342-.189-.484a3.628,3.628,0,0,0-.929-.348c-.368-.09-.73-.163-1.088-.216s-.59-.09-.7-.106c-.179-.017-.381-.036-.6-.053a2.865,2.865,0,0,0-.673.027,2.44,2.44,0,0,0-.63.189,1.1,1.1,0,0,0-.458.375.886.886,0,0,0-.136.713,1.253,1.253,0,0,0,.322.66,2.232,2.232,0,0,0,1.237.673A4.2,4.2,0,0,0-411.466,79.471Zm15.136-12.986a14.684,14.684,0,0,0,2.272-1.413,21.578,21.578,0,0,0,2.083-1.788,22.751,22.751,0,0,0,1.854-2.03c.574-.707,1.1-1.43,1.586-2.163.179-.269.375-.584.59-.942a10.963,10.963,0,0,0,.591-1.128,4.908,4.908,0,0,0,.375-1.2,2,2,0,0,0-.08-1.088.533.533,0,0,0-.484-.375,1.884,1.884,0,0,0-.766.123,4.934,4.934,0,0,0-.806.375c-.259.153-.444.265-.551.335a5.716,5.716,0,0,0-1.426,1.37q-.592.806-1.128,1.639-.672,1.05-1.29,2.083c-.411.69-.806,1.413-1.184,2.163q-.483.94-.955,1.907c-.315.647-.64,1.28-.982,1.907-.09.2-.1.3-.027.308A.544.544,0,0,0-396.33,66.484Z" transform="translate(0 0)" fill="#1e1e1e"/>
    <path id="Path_11" data-name="Path 11" d="M-336.473,107.681a2.919,2.919,0,0,1-1.29-.4,2.313,2.313,0,0,1-1.048-1.154,3.6,3.6,0,0,1-.229-1.493,6.207,6.207,0,0,1,.3-1.586,11.674,11.674,0,0,1,.551-1.413,15.124,15.124,0,0,1,1.814-3.1,11.665,11.665,0,0,1,2.621-2.514A10.552,10.552,0,0,1-331.7,94.87a8.323,8.323,0,0,1,2.272-.6q1.264-.134,1.639.564a2.479,2.479,0,0,1,.348,1.41,2.933,2.933,0,0,1-.418,1.29,4.629,4.629,0,0,1-.969,1.128,11.691,11.691,0,0,1-1.29.969,11.449,11.449,0,0,1-1.383.766c-.468.216-.879.395-1.237.537-.411.163-.783.305-1.115.431a3.8,3.8,0,0,0-.872.458,2.664,2.664,0,0,0-.66.687,3.744,3.744,0,0,0-.471,1.088,2.521,2.521,0,0,0-.119.846,1.79,1.79,0,0,0,.189.766,1.333,1.333,0,0,0,.5.551,1.591,1.591,0,0,0,.859.2,2.706,2.706,0,0,0,1-.189,4.485,4.485,0,0,0,.915-.484,6.993,6.993,0,0,0,.819-.66,9.28,9.28,0,0,0,.713-.74c.521-.574,1.025-1.164,1.519-1.775s.955-1.227,1.383-1.854c.036-.053.1-.176.2-.362a4.838,4.838,0,0,1,.308-.511.612.612,0,0,1,.322-.269c.106-.027.189.086.242.335a1.111,1.111,0,0,1-.229.929c-.226.315-.425.577-.6.793q-.7.861-1.357,1.775c-.438.61-.9,1.191-1.383,1.748a12.261,12.261,0,0,1-1.6,1.533,7.584,7.584,0,0,1-1.95,1.128,5.878,5.878,0,0,1-1.141.308A4.015,4.015,0,0,1-336.473,107.681Zm2.259-7.1a2.247,2.247,0,0,0,.471-.189l.308-.163a8.268,8.268,0,0,0,1.466-1.1,11.487,11.487,0,0,0,1.224-1.343,7.1,7.1,0,0,0,.617-.916,2.308,2.308,0,0,0,.322-1.048.579.579,0,0,0-.123-.418.358.358,0,0,0-.391-.149,1.419,1.419,0,0,0-.644.391c-.216.206-.395.381-.537.524-.106.126-.216.245-.322.362s-.206.229-.3.335c-.285.358-.564.713-.833,1.061s-.527.713-.78,1.088q-.055.08-.229.348a5.5,5.5,0,0,0-.322.564,1.7,1.7,0,0,0-.176.5C-334.476,100.569-334.393,100.619-334.214,100.582Z" transform="translate(-51.604 -27.162)" fill="#1e1e1e"/>
    <path id="Path_12" data-name="Path 12" d="M-318.709,107.909a.286.286,0,0,1-.176-.163.666.666,0,0,1,.013-.348,1.446,1.446,0,0,1,.375-.886c.232-.269.438-.527.617-.78q1.13-1.612,2.083-3.307t1.977-3.387c.285-.464.587-.932.9-1.4a5.075,5.075,0,0,0,.687-1.506,5.08,5.08,0,0,0,.123-.617.548.548,0,0,1,.362-.458,1.43,1.43,0,0,1,.793-.149,3.311,3.311,0,0,0,.793-.013,5.871,5.871,0,0,1,.7-.08.751.751,0,0,1,.643.242.584.584,0,0,1,.106.484c-.036.179-.073.342-.106.484a1.7,1.7,0,0,1-.136.308.373.373,0,0,0-.027.308.96.96,0,0,1,.242-.2c.163-.116.345-.252.551-.4s.4-.292.59-.418a3.051,3.051,0,0,0,.335-.242,6.261,6.261,0,0,1,.969-.511,3.072,3.072,0,0,1,1.048-.242,2.024,2.024,0,0,1,1.343.4,1.618,1.618,0,0,1,.617,1.264c0,.143,0,.282-.013.418s-.013.272-.013.418c.09-.073.163-.136.216-.189l.149-.149c.043-.043.076-.066.093-.066a4.111,4.111,0,0,1,.537-.537,5.233,5.233,0,0,1,1.184-.886,5.4,5.4,0,0,1,1.008-.431,5.579,5.579,0,0,1,1.061-.216,4.046,4.046,0,0,1,.942,0,1.374,1.374,0,0,1,.78.431c.073.073.136.129.189.176a.915.915,0,0,1,.163.2,2.633,2.633,0,0,1,.176,1.158,4.3,4.3,0,0,1-.229,1.154,11.237,11.237,0,0,1-.942,1.95c-.375.617-.763,1.234-1.158,1.841-.252.411-.511.826-.779,1.237s-.527.826-.78,1.237c-.053.09-.149.232-.282.431a4.707,4.707,0,0,0-.362.63,3.142,3.142,0,0,0-.229.644.484.484,0,0,0,.093.471.473.473,0,0,0,.471.123,2.556,2.556,0,0,0,.471-.149,3.888,3.888,0,0,0,1.075-.726c.322-.305.637-.6.942-.886a10.476,10.476,0,0,0,1.479-1.722q.647-.94,1.264-1.881a3.411,3.411,0,0,1,.309-.431.285.285,0,0,1,.444-.053c.216.143.259.375.136.7a4.941,4.941,0,0,1-.551,1.008q-.363.522-.766,1c-.269.315-.448.524-.537.63q-.458.617-.955,1.171a9.765,9.765,0,0,1-1.088,1.035c-.2.163-.391.318-.577.471s-.381.308-.577.471a5.435,5.435,0,0,1-.955.6,4.51,4.51,0,0,1-1.154.4,3.768,3.768,0,0,1-1.184.053,1.876,1.876,0,0,1-1.035-.471,1.467,1.467,0,0,1-.471-.9,2.7,2.7,0,0,1,.08-1.061,6.01,6.01,0,0,1,.4-1.061c.169-.348.325-.65.471-.9q.378-.7.74-1.37a13.7,13.7,0,0,1,.793-1.29c.252-.375.511-.743.78-1.1a9.339,9.339,0,0,0,.726-1.128,5.88,5.88,0,0,0,.335-.66,2.713,2.713,0,0,0,.2-.713,1.563,1.563,0,0,0,.027-.5.427.427,0,0,0-.322-.362.714.714,0,0,0-.66.066,4.668,4.668,0,0,0-.6.391,8.475,8.475,0,0,0-1.964,2.057q-.836,1.224-1.533,2.4c-.554.916-1.095,1.818-1.612,2.717s-1.068,1.791-1.639,2.687a6.406,6.406,0,0,0-.348.551,1.136,1.136,0,0,1-.458.444,1.7,1.7,0,0,1-.524.136c-.189.017-.382.027-.577.027h-.375c-.163,0-.328-.01-.5-.027a3.661,3.661,0,0,1-.471-.08.454.454,0,0,1-.3-.189.368.368,0,0,1-.08-.308,1.269,1.269,0,0,1,.106-.348,3.539,3.539,0,0,1,.176-.335c.063-.106.123-.2.176-.269q1.05-1.692,2.057-3.4t2.03-3.453c.036-.073.156-.285.362-.644a10.839,10.839,0,0,0,.564-1.128,4.242,4.242,0,0,0,.322-1.048c.043-.305-.076-.438-.362-.4a2.7,2.7,0,0,0-1.426.713c-.448.4-.843.783-1.184,1.141a11.154,11.154,0,0,0-1.128,1.317q-.513.7-1,1.426-.836,1.289-1.708,2.541T-314.8,106.1a2.132,2.132,0,0,0-.189.444,3.626,3.626,0,0,1-.2.511,2.768,2.768,0,0,1-.269.458.77.77,0,0,1-.388.282.239.239,0,0,0-.106.027c-.036.017-.073.036-.106.053a1.975,1.975,0,0,1-.524.08c-.259.017-.534.027-.819.027h-.806A1.816,1.816,0,0,1-318.709,107.909Z" transform="translate(-65.065 -27.417)" fill="#1e1e1e"/>
    <path id="Path_13" data-name="Path 13" d="M-250.843,107.844a3.3,3.3,0,0,1-1.479-.833,2.224,2.224,0,0,1-.7-1.532,5.526,5.526,0,0,1,.053-1.061,9.539,9.539,0,0,1,.216-1.061,7.575,7.575,0,0,1,.644-1.828,12.187,12.187,0,0,1,2.418-3.254c.554-.521,1.111-1,1.665-1.426.342-.269.7-.527,1.088-.78a10.349,10.349,0,0,1,1.2-.673,8.475,8.475,0,0,1,1.264-.484,5.544,5.544,0,0,1,1.317-.216,4.181,4.181,0,0,1,1.479.216,2.156,2.156,0,0,1,1.022.859A2.769,2.769,0,0,1-240.2,97.6a11.794,11.794,0,0,1-.375,1.881,12.555,12.555,0,0,1-1.639,3.6,10.7,10.7,0,0,1-2.743,2.876,15.2,15.2,0,0,1-2.176,1.264,8.1,8.1,0,0,1-2.392.726,4.843,4.843,0,0,1-.66.013A2.14,2.14,0,0,1-250.843,107.844Zm2.232-1.4a5.044,5.044,0,0,0,1.735-1.237,15.07,15.07,0,0,0,1.33-1.665c.143-.2.272-.395.391-.59s.239-.395.362-.59a17.068,17.068,0,0,0,.846-1.506c.259-.521.508-1.038.74-1.559.143-.375.279-.733.4-1.075a4.356,4.356,0,0,0,.242-1.128,2.218,2.218,0,0,0-.093-.766.768.768,0,0,0-.5-.551,1.114,1.114,0,0,0-.942.163,5.886,5.886,0,0,0-.78.59c-.252.252-.5.488-.753.713a7.467,7.467,0,0,0-.7.713,15.475,15.475,0,0,0-1.29,1.586q-.592.836-1.1,1.7a16.513,16.513,0,0,0-.833,1.546q-.378.791-.7,1.6a5.926,5.926,0,0,0-.282,1,1.2,1.2,0,0,0,.176,1,.8.8,0,0,0,.537.3,1.745,1.745,0,0,0,.617,0C-249.022,106.61-248.826,106.537-248.611,106.448Z" transform="translate(-109.088 -27.461)" fill="#1e1e1e"/>
    <path id="Path_14" data-name="Path 14" d="M-216.907,108.374a3.967,3.967,0,0,1-.63-.106,1.25,1.25,0,0,1-.524-.269,1.638,1.638,0,0,1-.471-.7,2.328,2.328,0,0,1-.106-.793,3.139,3.139,0,0,1,.136-.819,7.5,7.5,0,0,1,.282-.78,15.543,15.543,0,0,1,1.035-1.894q.577-.9,1.2-1.788c.232-.358.464-.716.7-1.075s.464-.716.7-1.075a6,6,0,0,1,.4-.537c.163-.2.312-.4.458-.617a2.58,2.58,0,0,0,.322-.66.858.858,0,0,0-.027-.63.422.422,0,0,0-.391-.269,1.336,1.336,0,0,0-.537.123,2.935,2.935,0,0,0-.551.309c-.179.126-.305.216-.375.269a7.724,7.724,0,0,0-.942.819c-.285.3-.564.6-.833.9l-.886,1.048A15.312,15.312,0,0,0-219.6,102.1c-.474.8-.972,1.6-1.493,2.4-.342.521-.68,1.032-1.022,1.533s-.69,1-1.048,1.479a1.352,1.352,0,0,1-.322.362.875.875,0,0,1-.458.176,3.492,3.492,0,0,1-.524.013c-.169-.01-.345-.013-.524-.013-.574,0-.935,0-1.088-.013a.684.684,0,0,1-.309-.066.6.6,0,0,1-.119-.431.838.838,0,0,1,.229-.511,14.345,14.345,0,0,0,1.519-2.193q.657-1.169,1.383-2.3.428-.7.833-1.37t.833-1.343c.285-.411.561-.836.819-1.277s.534-.872.819-1.3c.09-.143.179-.292.269-.444a2.4,2.4,0,0,0,.216-.471,1.932,1.932,0,0,0,.08-.431,2.327,2.327,0,0,1,.106-.511,1.234,1.234,0,0,1,.216-.4.385.385,0,0,1,.431-.08.652.652,0,0,0,.229.027,3.52,3.52,0,0,0,.391-.027q.562-.055.915-.08c.232-.017.411-.027.537-.027a.649.649,0,0,1,.269.04.612.612,0,0,1,.136.093q.512.567-.189,1.8a1.378,1.378,0,0,0-.106.2c-.017.046-.036.086-.053.123l-.027.053a.849.849,0,0,1,.308-.308,2.256,2.256,0,0,0,.362-.282c.143-.106.279-.209.4-.309a4.15,4.15,0,0,1,.4-.282,9.778,9.778,0,0,1,1.1-.617,5.544,5.544,0,0,1,1.184-.4,3.049,3.049,0,0,1,.859-.04,2.6,2.6,0,0,1,.846.216,1.84,1.84,0,0,1,.66.5,1.372,1.372,0,0,1,.3.833,3.829,3.829,0,0,1-.308,1.775,8.917,8.917,0,0,1-.872,1.559q-.562.806-1.141,1.6t-1.115,1.6a18.222,18.222,0,0,0-1.37,2.259,1.789,1.789,0,0,1-.176.322,2.1,2.1,0,0,0-.2.4,1.167,1.167,0,0,0-.08.4.331.331,0,0,0,.163.3.753.753,0,0,0,.713.027c.279-.106.507-.206.687-.3a5.517,5.517,0,0,0,1.519-1.264c.438-.521.866-1.032,1.277-1.533a7.552,7.552,0,0,0,.537-.66c.163-.222.322-.461.484-.713.163-.232.308-.471.444-.713a3,3,0,0,1,.5-.66.856.856,0,0,1,.348-.2.245.245,0,0,1,.322.149.818.818,0,0,1,.053.577,1.983,1.983,0,0,1-.269.564,5.42,5.42,0,0,1-.4.537l-.375.444c-.59.68-1.178,1.377-1.761,2.083a13.826,13.826,0,0,1-1.921,1.921,8.163,8.163,0,0,1-1.735,1.075A4.237,4.237,0,0,1-216.907,108.374Z" transform="translate(-126.814 -27.533)" fill="#1e1e1e"/>
    <path id="Path_15" data-name="Path 15" d="M-167.407,65.871a.535.535,0,0,1,.391.216.908.908,0,0,1,.093.458c-.017.232-.046.468-.08.7a1.648,1.648,0,0,1-.242.644q-1.612,2.582-3.145,5.161-1.02,1.722-2.136,3.373t-2.136,3.373c-.126.216-.245.431-.362.644a4.966,4.966,0,0,1-.391.617c-.285.484-.571.969-.846,1.453s-.571.969-.872,1.453c-.09.143-.212.328-.362.551a7.087,7.087,0,0,0-.418.7,2.571,2.571,0,0,0-.255.713.693.693,0,0,0,.123.59.525.525,0,0,0,.444.216,1.424,1.424,0,0,0,.5-.08,3.835,3.835,0,0,0,1.075-.713c.342-.312.653-.614.942-.9a15.3,15.3,0,0,0,1.2-1.466q.552-.766,1.088-1.572c.036-.053.129-.209.282-.471a5.982,5.982,0,0,1,.511-.74,2.124,2.124,0,0,1,.537-.5c.169-.1.282,0,.335.282a.8.8,0,0,1-.066.511,4.742,4.742,0,0,1-.3.551,4.121,4.121,0,0,1-.391.537,4.261,4.261,0,0,0-.322.418q-.781,1.154-1.639,2.246a12.433,12.433,0,0,1-1.964,1.977q-.726.617-1.383,1.075a5.35,5.35,0,0,1-1.6.726,1.637,1.637,0,0,1-.348.066c-.106.01-.226.013-.348.013a1.977,1.977,0,0,1-.955-.375,1.771,1.771,0,0,1-.63-.806,3.122,3.122,0,0,1-.123-1.506,7.378,7.378,0,0,1,.431-1.6,11.982,11.982,0,0,1,.726-1.533c.279-.494.534-.935.766-1.33q.647-1.129,1.357-2.193c.474-.707.935-1.43,1.383-2.163q.726-1.184,1.41-2.352t1.383-2.352q.672-1.129,1.44-2.232a16.188,16.188,0,0,0,1.33-2.285,4.918,4.918,0,0,0,.269-.66c.073-.226.136-.451.189-.687a.766.766,0,0,1,.4-.511,1.4,1.4,0,0,1,.644-.08c.2,0,.381-.01.551-.027s.355-.043.551-.08a3.09,3.09,0,0,1,.471-.08A1.417,1.417,0,0,1-167.407,65.871Z" transform="translate(-157.064 -8.177)" fill="#1e1e1e"/>
    <path id="Path_16" data-name="Path 16" d="M-160.164,93.534a1.692,1.692,0,0,1-.806-.644,2.235,2.235,0,0,1-.322-.872,4.1,4.1,0,0,1-.053-.929,5.618,5.618,0,0,1,.444-1.559c.226-.5.461-.985.713-1.453a26.629,26.629,0,0,1,1.4-2.325q.751-1.115,1.453-2.3c.2-.305.388-.614.577-.929a2.427,2.427,0,0,0,.335-1.035c.017-.126.04-.255.066-.391a.631.631,0,0,1,.176-.335,1.418,1.418,0,0,1,.9-.348c.4-.036.73-.063.982-.08.126-.017.269-.03.431-.04a1.88,1.88,0,0,1,.458.027.852.852,0,0,1,.375.163.54.54,0,0,1,.189.391,1.849,1.849,0,0,1-.093.713,3.6,3.6,0,0,1-.322.7c-.136.226-.282.448-.445.673s-.3.425-.4.6q-.781,1.209-1.532,2.418t-1.479,2.475c-.036.073-.113.2-.229.391s-.242.4-.375.647-.265.494-.391.753a2.942,2.942,0,0,0-.255.726.906.906,0,0,0,.027.551.408.408,0,0,0,.418.216,1.25,1.25,0,0,0,.687-.149,3.239,3.239,0,0,0,.643-.444,5.924,5.924,0,0,0,.577-.577c.179-.206.342-.391.484-.551a19.9,19.9,0,0,0,1.3-1.559c.4-.537.783-1.091,1.141-1.665.053-.106.126-.269.216-.484s.189-.425.3-.63a1.689,1.689,0,0,1,.375-.5.435.435,0,0,1,.484-.08c.163.073.192.259.093.564a5.194,5.194,0,0,1-.551,1.1q-.4.647-.955,1.4t-1.088,1.41q-.537.657-.955,1.141c-.279.322-.461.527-.551.617-.216.216-.5.474-.859.78a10.688,10.688,0,0,1-1.141.846,4.722,4.722,0,0,1-1.251.577A1.91,1.91,0,0,1-160.164,93.534Zm7.8-16.99a1.306,1.306,0,0,1-.577-.551,1.261,1.261,0,0,1-.119-.846,2.26,2.26,0,0,1,.375-.859,2.772,2.772,0,0,1,.673-.7A1.57,1.57,0,0,1-151,73.24a1.116,1.116,0,0,1,1.158.859,1.84,1.84,0,0,1,.013.726,2.714,2.714,0,0,1-.242.726,2.2,2.2,0,0,1-.458.617,2.031,2.031,0,0,1-.6.4,1.491,1.491,0,0,1-.647.119A1.415,1.415,0,0,1-152.369,76.544Z" transform="translate(-170.354 -13.125)" fill="#1e1e1e"/>
    <path id="Path_17" data-name="Path 17" d="M-128.661,65.871a.542.542,0,0,1,.391.216.907.907,0,0,1,.093.458c-.02.232-.046.468-.08.7a1.648,1.648,0,0,1-.242.644q-1.612,2.582-3.145,5.161-1.02,1.722-2.136,3.373t-2.136,3.373c-.126.216-.245.431-.362.644a4.968,4.968,0,0,1-.391.617c-.285.484-.571.969-.846,1.453s-.571.969-.872,1.453c-.09.143-.212.328-.362.551a7.093,7.093,0,0,0-.418.7,2.571,2.571,0,0,0-.255.713.693.693,0,0,0,.123.59.525.525,0,0,0,.444.216,1.424,1.424,0,0,0,.5-.08,3.835,3.835,0,0,0,1.075-.713c.342-.312.653-.614.942-.9a15.29,15.29,0,0,0,1.2-1.466q.552-.766,1.088-1.572c.036-.053.129-.209.282-.471a5.981,5.981,0,0,1,.511-.74,2.123,2.123,0,0,1,.537-.5c.169-.1.282,0,.335.282a.8.8,0,0,1-.066.511,4.735,4.735,0,0,1-.3.551,4.418,4.418,0,0,1-.388.537,4.266,4.266,0,0,0-.322.418q-.781,1.154-1.639,2.246a12.435,12.435,0,0,1-1.964,1.977q-.726.617-1.383,1.075a5.35,5.35,0,0,1-1.6.726,1.637,1.637,0,0,1-.348.066c-.106.01-.226.013-.348.013a1.977,1.977,0,0,1-.955-.375,1.771,1.771,0,0,1-.63-.806,3.122,3.122,0,0,1-.123-1.506,7.376,7.376,0,0,1,.431-1.6,11.974,11.974,0,0,1,.726-1.533c.279-.494.534-.935.766-1.33q.647-1.129,1.357-2.193c.474-.707.935-1.43,1.383-2.163q.726-1.184,1.41-2.352t1.383-2.352q.672-1.129,1.44-2.232a16.186,16.186,0,0,0,1.33-2.285,4.174,4.174,0,0,0,.269-.66c.073-.226.133-.451.189-.687a.766.766,0,0,1,.4-.511,1.4,1.4,0,0,1,.644-.08c.2,0,.381-.01.551-.027s.355-.043.551-.08a3.091,3.091,0,0,1,.471-.08A1.409,1.409,0,0,1-128.661,65.871Z" transform="translate(-182.96 -8.177)" fill="#1e1e1e"/>
    <path id="Path_18" data-name="Path 18" d="M-119.435,88.668a2.153,2.153,0,0,1-.753-.4,2.08,2.08,0,0,1-.819-1.2,4.14,4.14,0,0,1-.08-1.493,6.125,6.125,0,0,1,.391-1.532,10.273,10.273,0,0,1,.617-1.317q1.02-1.911,2.189-3.765t2.461-3.6a5.915,5.915,0,0,0,.644-.916c.053-.106.113-.232.176-.375a.536.536,0,0,1,.282-.3.8.8,0,0,0-.484-.149c-.216-.01-.421-.017-.617-.027a1.246,1.246,0,0,1-.511-.123c-.143-.07-.2-.216-.163-.431a.513.513,0,0,1,.308-.4,1.613,1.613,0,0,1,.564-.123,3.494,3.494,0,0,1,.617.027,1.845,1.845,0,0,0,.5.013,1.5,1.5,0,0,0,.673-.269,2.762,2.762,0,0,0,.537-.524,5.065,5.065,0,0,0,.431-.644c.126-.226.242-.435.348-.63.2-.358.391-.717.577-1.075s.362-.726.524-1.1c.053-.143.106-.308.163-.5s.113-.375.176-.564a4.322,4.322,0,0,1,.216-.537,1.248,1.248,0,0,1,.309-.418,1.205,1.205,0,0,1,.511-.216,3.365,3.365,0,0,1,.617-.053c.216,0,.431.01.644.027a2.136,2.136,0,0,0,.59-.027,5.669,5.669,0,0,1,.726-.066.648.648,0,0,1,.617.362.745.745,0,0,1,.013.6c-.08.226-.156.425-.229.6a5.582,5.582,0,0,1-.577,1.184c-.242.375-.481.763-.713,1.154a14.9,14.9,0,0,1-.886,1.33,4.4,4.4,0,0,0-.726,1.44,1.065,1.065,0,0,0,.4.04c.163-.01.325-.017.5-.027a3.933,3.933,0,0,1,.484,0,.813.813,0,0,1,.391.119c.126.106.143.269.053.484a.869.869,0,0,1-.322.431,1.308,1.308,0,0,1-.846.149,4.423,4.423,0,0,0-.872-.04,1.172,1.172,0,0,0-.886.335,4.249,4.249,0,0,0-.59.793q-1.264,2.045-2.5,4.06t-2.607,4.007c-.232.342-.448.69-.644,1.048a4.4,4.4,0,0,0-.431,1.128,1.292,1.292,0,0,0-.027.78.909.909,0,0,0,.348.484.928.928,0,0,0,.59.136,1.928,1.928,0,0,0,.753-.242,4.318,4.318,0,0,0,1.224-.982c.348-.4.687-.809,1.008-1.224q.592-.726,1.141-1.466c.368-.494.746-.982,1.141-1.466.053-.053.156-.179.308-.375a7.277,7.277,0,0,1,.5-.577,2.9,2.9,0,0,1,.524-.445c.169-.106.3-.1.388.027a.661.661,0,0,1-.027.6,5.527,5.527,0,0,1-.418.806,8.062,8.062,0,0,1-.537.78c-.189.242-.318.408-.391.5A15.691,15.691,0,0,1-112,83.831c-.385.421-.776.839-1.168,1.251q-.562.592-1.251,1.343a10.688,10.688,0,0,1-1.493,1.357,5.852,5.852,0,0,1-1.7.9A2.674,2.674,0,0,1-119.435,88.668Z" transform="translate(-197.241 -8.258)" fill="#1e1e1e"/>
  </g>
</svg>
