<svg xmlns="http://www.w3.org/2000/svg" width="771.351" height="771.351" viewBox="0 0 771.351 771.351">
  <path id="Path_52" data-name="Path 52" d="M353.213,754.911l-1.551,17.332q-.846-.076-1.69-.153l1.624-17.329C352.135,754.811,352.673,754.864,353.213,754.911Zm69.95,17.179q-.843.078-1.69.153l-1.549-17.332c.54-.047,1.077-.1,1.617-.15ZM319.359,750.3l-1.572,8.557v0l-1.572,8.557c-.557-.1-1.116-.207-1.672-.312l3.218-17.1C318.294,750.109,318.827,750.206,319.359,750.3Zm139.232,16.8c-.557.1-1.116.209-1.672.312l-1.57-8.557-1.572-8.559c.533-.1,1.065-.195,1.6-.3Zm-172.5-24.523-4.716,16.749q-.822-.23-1.641-.465l4.793-16.728C285.048,742.289,285.57,742.439,286.093,742.585ZM493.4,758.87q-.82.235-1.641.465l-4.715-16.749c.522-.146,1.044-.3,1.565-.444ZM253.691,731.809l-6.255,16.238c-.531-.2-1.06-.411-1.589-.616l6.326-16.21Zm273.6,15.621c-.529.205-1.058.412-1.589.616l-6.251-16.238,1.516-.588ZM222.427,718.067l-7.738,15.59-1.525-.764,7.805-15.552ZM559.97,732.893l-1.525.764-7.736-15.59,1.457-.726ZM192.563,701.485l-9.144,14.807q-.723-.449-1.448-.9l9.208-14.767Q191.871,701.056,192.563,701.485Zm398.6,13.907q-.723.452-1.448.9l-9.142-14.807q.692-.428,1.384-.86ZM164.351,682.214l-10.468,13.9q-.681-.512-1.36-1.029l10.529-13.855Q163.7,681.724,164.351,682.214Zm456.26,12.872q-.676.517-1.359,1.029l-10.465-13.9,1.3-.983ZM138.024,660.427l-11.7,12.882q-.63-.574-1.258-1.149l11.754-12.83C137.221,659.7,137.623,660.063,138.024,660.427ZM648.069,672.16c-.419.383-.837.766-1.258,1.149l-11.7-12.882c.4-.364.8-.731,1.2-1.1ZM113.807,636.316l-12.832,11.753c-.384-.419-.767-.837-1.149-1.258l12.883-11.7Q113.256,635.715,113.807,636.316Zm559.5,10.494c-.383.421-.766.839-1.149,1.258l-12.83-11.753c.365-.4.733-.8,1.1-1.2ZM91.9,610.085l-6.931,5.263,0,0-6.927,5.261q-.516-.676-1.028-1.359l13.9-10.465Q91.412,609.437,91.9,610.085Zm604.21,9.166q-.512.681-1.029,1.359l-6.925-5.261-6.93-5.265q.493-.65.983-1.3Zm-623.6-37.294-14.769,9.206q-.451-.723-.9-1.448l14.808-9.142Q72.079,581.266,72.511,581.958Zm643.781,7.758q-.449.723-.9,1.448l-14.767-9.206q.431-.692.86-1.384ZM55.8,552.166l-15.554,7.8c-.255-.508-.511-1.016-.763-1.525L55.07,550.71Q55.432,551.441,55.8,552.166Zm677.861,6.279q-.381.762-.764,1.525l-15.552-7.8q.363-.726.726-1.457ZM41.916,520.964l-16.211,6.324q-.31-.794-.617-1.589l16.239-6.251Q41.62,520.2,41.916,520.964ZM748.047,525.7c-.2.531-.411,1.06-.616,1.589l-8.1-3.161-8.1-3.164q.295-.757.588-1.516ZM31,488.609,14.265,493.4q-.235-.82-.466-1.641l16.751-4.715Q30.771,487.827,31,488.609Zm728.338,3.15q-.23.822-.465,1.641l-16.728-4.791c.148-.52.3-1.042.444-1.565ZM23.129,455.375l-17.1,3.216c-.1-.557-.209-1.116-.311-1.672l17.118-3.141Q22.98,454.576,23.129,455.375Zm735.733-.026,8.559,1.57c-.1.557-.207,1.116-.312,1.672l-8.55-1.606-8.55-1.61c.1-.533.2-1.065.3-1.6ZM18.375,421.541,1.046,423.163q-.079-.843-.155-1.69l17.334-1.549C18.274,420.463,18.325,421,18.375,421.541Zm736.536-1.617,17.332,1.549q-.076.846-.153,1.69l-17.329-1.622C754.811,421,754.864,420.463,754.911,419.924ZM18.375,351.6c-.05.54-.1,1.077-.149,1.617L.892,351.662q.076-.846.155-1.69Zm753.868.066-17.332,1.551c-.047-.539-.1-1.077-.15-1.617l17.329-1.624Q772.168,350.815,772.243,351.662ZM14.578,316.152l8.55,1.61q-.15.8-.3,1.6l-8.559-1.572-8.559-1.572c.1-.557.206-1.116.311-1.672Zm752.531-1.608c.1.557.209,1.116.312,1.672l-8.557,1.572h0l-8.557,1.572c-.1-.533-.195-1.065-.3-1.6ZM14.265,279.735,31,284.528q-.224.781-.445,1.565L13.8,281.376c.077-.273.152-.545.229-.816Zm744.6,0q.235.82.465,1.641l-16.749,4.716c-.146-.522-.3-1.044-.444-1.565ZM33.81,249.009l8.105,3.164q-.3.76-.588,1.518l-16.239-6.255q.306-.8.617-1.589Zm713.62-3.162c.205.529.412,1.058.616,1.589l-16.238,6.255q-.292-.757-.588-1.518ZM55.8,220.97q-.365.726-.726,1.457l-15.59-7.736,0,0c.253-.508.508-1.016.763-1.525Zm677.1-7.805q.381.762.764,1.525l-15.59,7.738q-.363-.731-.726-1.457ZM57.742,181.971l14.769,9.208q-.43.692-.858,1.384l-14.81-9.144Zm657.65,0q.452.723.9,1.448l-14.807,9.144q-.428-.692-.86-1.384ZM91.9,163.052q-.492.648-.982,1.3l-13.9-10.468q.513-.681,1.028-1.36Zm603.181-10.529q.517.678,1.029,1.36l-13.9,10.468q-.491-.65-.983-1.3Zm-581.279-15.7q-.55.6-1.1,1.2l-12.883-11.7q.572-.63,1.149-1.258ZM672.16,125.067q.574.628,1.149,1.258l-12.882,11.7c-.364-.4-.731-.8-1.1-1.2ZM138.024,112.709q-.6.547-1.2,1.1l-11.754-12.832q.628-.575,1.258-1.149ZM646.81,99.827c.421.382.839.765,1.258,1.149l-11.753,12.832q-.6-.55-1.2-1.1Zm-482.46-8.9q-.65.49-1.3.982L152.523,78.048q.678-.516,1.36-1.028Zm454.9-13.9q.681.513,1.359,1.028L610.085,91.9q-.65-.492-1.3-.982ZM192.563,71.651q-.692.428-1.384.86l-9.208-14.769q.723-.451,1.448-.9Zm398.6-13.909-9.206,14.769-1.384-.858,9.142-14.81Q590.439,57.291,591.164,57.742ZM214.691,39.48l7.736,15.59q-.731.362-1.457.726l-7.805-15.554c.508-.255,1.016-.511,1.525-.763Zm343.754,0c.508.253,1.016.508,1.525.763l-7.8,15.554q-.726-.365-1.457-.726ZM253.691,41.328l-1.518.588-6.326-16.211q.794-.31,1.589-.617ZM525.7,25.088q.8.306,1.589.617l-3.161,8.105,0,0-3.162,8.107q-.757-.3-1.516-.588ZM286.093,30.551q-.783.22-1.565.445l-4.793-16.731q.82-.235,1.641-.466ZM491.759,13.8q.822.231,1.641.466L488.609,31q-.78-.224-1.565-.445Zm-172.4,9.033q-.8.147-1.6.3l-3.218-17.1c.557-.1,1.116-.209,1.672-.311ZM456.919,5.715c.557.1,1.116.206,1.672.311l-1.606,8.552,0,0-1.608,8.552q-.8-.15-1.6-.3ZM353.213,18.226c-.539.048-1.077.1-1.617.149L349.972,1.046q.843-.079,1.69-.155Zm69.95-17.179-1.622,17.329c-.54-.05-1.077-.1-1.617-.149L421.473.892Q422.319.967,423.163,1.046Z" transform="translate(-0.892 -0.892)" fill="#989393"/>
</svg>
