<svg xmlns="http://www.w3.org/2000/svg" width="26.837" height="30.51" viewBox="0 0 26.837 30.51">
  <path id="Union_1" data-name="Union 1" d="M4.514,35.21,3.479,29.128a.951.951,0,0,0-.04-.158L.671,20.945a1,1,0,0,1-.05-.445,1,1,0,0,1,.05-.444l2.768-8.024a1,1,0,0,0,.04-.158L4.514,5.791a1,1,0,0,1,1.971,0l1.036,6.082a1,1,0,0,0,.04.158l2.767,8.024a1,1,0,0,1,.05.444,1,1,0,0,1-.05.445L7.562,28.969a.951.951,0,0,0-.04.158L6.485,35.21a1,1,0,0,1-1.971,0Zm.658-14.417a1,1,0,0,0,.655,0l.845-.293-.845-.293a1,1,0,0,0-.655,0l-.845.293Z" transform="matrix(0.788, 0.616, -0.616, 0.788, 21.705, -4.285)" fill="#fff"/>
</svg>
